<svg width="24" height="25" viewBox="0 0 24 25" fill="none" xmlns="http://www.w3.org/2000/svg">
<path d="M9 3.75C5.82436 3.75 3.25 6.32436 3.25 9.5V16.6069C3.25 17.0211 3.58579 17.3569 4 17.3569C4.41421 17.3569 4.75 17.0211 4.75 16.6069V9.5C4.75 7.15279 6.65279 5.25 9 5.25H16.0129C16.4271 5.25 16.7629 4.91421 16.7629 4.5C16.7629 4.08579 16.4271 3.75 16.0129 3.75H9Z" fill="#676767"/>
<path fill-rule="evenodd" clip-rule="evenodd" d="M18.4026 7.29326C15.1616 6.93104 11.8384 6.93104 8.59748 7.29326C7.6742 7.39645 6.93227 8.12304 6.82344 9.05348C6.43906 12.34 6.43906 15.66 6.82344 18.9465C6.93227 19.877 7.6742 20.6035 8.59748 20.7067C11.8384 21.069 15.1616 21.069 18.4026 20.7067C19.3258 20.6035 20.0678 19.877 20.1766 18.9465C20.561 15.66 20.561 12.34 20.1766 9.05348C20.0678 8.12304 19.3258 7.39645 18.4026 7.29326ZM8.76409 8.78398C11.8943 8.43413 15.1057 8.43413 18.2359 8.78398C18.4733 8.8105 18.6599 8.99821 18.6867 9.22773C19.0576 12.3984 19.0576 15.6016 18.6867 18.7723C18.6599 19.0018 18.4733 19.1895 18.2359 19.216C15.1057 19.5659 11.8943 19.5659 8.76409 19.216C8.52674 19.1895 8.34013 19.0018 8.31329 18.7723C7.94245 15.6016 7.94245 12.3984 8.31329 9.22773C8.34013 8.99821 8.52674 8.8105 8.76409 8.78398Z" fill="#676767"/>
</svg>
