<svg width="48" height="48" viewBox="0 0 48 48" fill="none" xmlns="http://www.w3.org/2000/svg">
<path d="M14.9667 10.519C12.6778 10.7748 10.8457 12.5813 10.5809 14.8455C9.86952 20.9278 9.86952 27.0722 10.5809 33.1545C10.8457 35.4188 12.6778 37.2253 14.9667 37.4811C20.9203 38.1465 27.0796 38.1465 33.0333 37.4811C35.3221 37.2253 37.1542 35.4188 37.419 33.1545C37.9302 28.7842 38.0741 24.3818 37.8507 19.9935C37.8449 19.8802 37.8872 19.7696 37.9675 19.6894L40.045 17.6118C40.2855 17.3714 40.6964 17.5217 40.7219 17.8608C41.114 23.0707 41.0062 28.3087 40.3987 33.503C39.969 37.177 37.0192 40.0543 33.3665 40.4625C27.1914 41.1527 20.8086 41.1527 14.6335 40.4625C10.9807 40.0543 8.03091 37.177 7.60121 33.503C6.86275 27.1892 6.86275 20.8108 7.60121 14.497C8.03091 10.8231 10.9807 7.94577 14.6335 7.53752C20.8086 6.84736 27.1914 6.84736 33.3665 7.53752C34.653 7.6813 35.8523 8.13136 36.885 8.81463C37.0882 8.94908 37.1084 9.23476 36.9361 9.40705L35.3303 11.0128C35.199 11.1442 34.9952 11.1663 34.8315 11.0785C34.2847 10.7855 33.677 10.5909 33.0332 10.519C27.0796 9.85355 20.9203 9.85355 14.9667 10.519Z" fill="white"/>
<path d="M42.0606 12.0607C42.6464 11.4749 42.6464 10.5251 42.0606 9.93936C41.4748 9.35357 40.5251 9.35357 39.9393 9.93936L22.9999 26.8787L18.0606 21.9394C17.4748 21.3536 16.5251 21.3536 15.9393 21.9394C15.3535 22.5251 15.3535 23.4749 15.9393 24.0607L21.9393 30.0607C22.5251 30.6465 23.4748 30.6465 24.0606 30.0607L42.0606 12.0607Z" fill="white"/>
</svg>
