<svg width="18" height="15" viewBox="0 0 18 15" fill="none" xmlns="http://www.w3.org/2000/svg">
<path d="M4.15782 1.57452C4.47512 1.25722 4.47512 0.742777 4.15782 0.425476C3.84052 0.108175 3.32607 0.108175 3.00877 0.425476L0.842102 2.59214C0.524801 2.90944 0.524801 3.42389 0.842102 3.74119L3.00877 5.90786C3.32607 6.22516 3.84052 6.22516 4.15782 5.90786C4.47512 5.59056 4.47512 5.07611 4.15782 4.75881L3.37817 3.97917H14.4166C14.8654 3.97917 15.2291 3.6154 15.2291 3.16667C15.2291 2.71794 14.8654 2.35417 14.4166 2.35417H3.37817L4.15782 1.57452Z" fill="#0066FF"/>
<path d="M13.8421 9.09214C13.5248 9.40944 13.5248 9.92389 13.8421 10.2412L14.6217 11.0208H3.58329C3.13456 11.0208 2.77079 11.3846 2.77079 11.8333C2.77079 12.2821 3.13456 12.6458 3.58329 12.6458H14.6217L13.8421 13.4255C13.5248 13.7428 13.5248 14.2572 13.8421 14.5745C14.1594 14.8918 14.6738 14.8918 14.9912 14.5745L17.1578 12.4079C17.4751 12.0906 17.4751 11.5761 17.1578 11.2588L14.9912 9.09214C14.6738 8.77484 14.1594 8.77484 13.8421 9.09214Z" fill="#0066FF"/>
</svg>
