<svg width="20" height="20" viewBox="0 0 20 20" fill="none" xmlns="http://www.w3.org/2000/svg">
<path fill-rule="evenodd" clip-rule="evenodd" d="M12.6141 2.89131C12.4969 2.7741 12.3379 2.70825 12.1721 2.70825C12.0064 2.70825 11.8474 2.7741 11.7302 2.89131L4.06988 10.5516C3.99136 10.6302 3.93517 10.7282 3.90711 10.8356L3.07378 14.026C3.0177 14.2407 3.07965 14.469 3.23655 14.6259C3.39344 14.7828 3.62176 14.8447 3.83644 14.7886L7.0268 13.9553C7.13424 13.9272 7.23226 13.8711 7.31079 13.7925L14.9711 6.13222C15.2152 5.88814 15.2152 5.49241 14.9711 5.24833L12.6141 2.89131ZM5.07368 11.3156L12.1721 4.21714L13.6453 5.69027L6.54681 12.7887L4.55284 13.3096L5.07368 11.3156Z" fill="#707070"/>
<path d="M3.33331 16.0416C2.98814 16.0416 2.70831 16.3214 2.70831 16.6666C2.70831 17.0118 2.98814 17.2916 3.33331 17.2916H15.8333C16.1785 17.2916 16.4583 17.0118 16.4583 16.6666C16.4583 16.3214 16.1785 16.0416 15.8333 16.0416H3.33331Z" fill="#707070"/>
</svg>
