<svg width="24" height="25" viewBox="0 0 24 25" fill="none" xmlns="http://www.w3.org/2000/svg">
<path fill-rule="evenodd" clip-rule="evenodd" d="M13.5578 6.03423C12.6873 5.19887 11.3127 5.19887 10.4422 6.03423L5.81574 10.4736C5.70239 10.5823 5.62614 10.724 5.5978 10.8785C5.04367 13.9004 5.00277 16.994 5.47681 20.0295L5.58933 20.75H8.56579V14.5387C8.56579 14.1244 8.90158 13.7887 9.31579 13.7887H14.6842C15.0984 13.7887 15.4342 14.1244 15.4342 14.5387V20.75H18.4107L18.5232 20.0295C18.9972 16.994 18.9563 13.9004 18.4022 10.8785C18.3739 10.724 18.2976 10.5823 18.1843 10.4736L13.5578 6.03423ZM9.40363 4.95191C10.8546 3.55965 13.1454 3.55965 14.5964 4.95191L19.2228 9.39125C19.5634 9.71804 19.7925 10.1437 19.8776 10.608C20.4621 13.7956 20.5053 17.059 20.0052 20.2609L19.8245 21.4184C19.7497 21.8971 19.3374 22.25 18.8529 22.25H14.6842C14.27 22.25 13.9342 21.9142 13.9342 21.5V15.2887H10.0658V21.5C10.0658 21.9142 9.73 22.25 9.31579 22.25H5.14706C4.66258 22.25 4.25029 21.8971 4.17554 21.4184L3.99478 20.2609C3.49473 17.059 3.53788 13.7956 4.12241 10.608C4.20754 10.1437 4.43662 9.71804 4.77719 9.39125L9.40363 4.95191Z" fill="#676767"/>
</svg>
