<svg width="24" height="24" viewBox="0 0 24 24" fill="none" xmlns="http://www.w3.org/2000/svg">
<path d="M6.54544 8.16277C6.33022 8.10599 6.15134 7.95655 6.05718 7.75486C5.96302 7.55318 5.96331 7.32009 6.05797 7.11863L7.71872 3.58424C7.84248 3.32086 8.10743 3.15284 8.39845 3.1532C8.68946 3.15356 8.95399 3.32223 9.0771 3.58592L9.80973 5.15516C9.83592 5.14486 9.86297 5.13594 9.8908 5.12848C14.2381 3.96361 18.7067 6.54352 19.8715 10.8909C21.0364 15.2382 18.4565 19.7068 14.1092 20.8716C9.76181 22.0365 5.29328 19.4566 4.12841 15.1092C3.75798 13.7268 3.76632 12.3299 4.09075 11.0312C4.19114 10.6293 4.5983 10.3849 5.00016 10.4853C5.40203 10.5857 5.64642 10.9929 5.54603 11.3947C5.28174 12.4527 5.27445 13.5908 5.5773 14.721C6.52775 18.2682 10.1738 20.3732 13.7209 19.4227C17.2681 18.4723 19.3731 14.8262 18.4227 11.2791C17.4877 7.78995 13.9447 5.69613 10.4531 6.53319L11.1923 8.11649C11.3154 8.38018 11.2748 8.69128 11.0883 8.91462C10.9017 9.13795 10.6028 9.23319 10.3214 9.15895L6.54544 8.16277Z" fill="black"/>
</svg>
