<svg width="25" height="25" viewBox="0 0 25 25" fill="none" xmlns="http://www.w3.org/2000/svg">
<path fill-rule="evenodd" clip-rule="evenodd" d="M13.6546 3.86026C12.9835 3.50999 12.0741 3.50459 11.3977 3.85396C8.80469 5.1931 6.45282 6.72853 4.39185 8.43154C4.07314 8.69489 3.84696 9.07758 3.85082 9.52802C3.85466 9.97662 4.08544 10.3542 4.40222 10.6132C6.44607 12.2844 8.79988 13.8212 11.3454 15.1497C12.0165 15.5 12.9259 15.5054 13.6024 15.156C16.1953 13.8169 18.5472 12.2815 20.6082 10.5785C20.9269 10.3151 21.1531 9.93242 21.1492 9.48197C21.1453 9.03338 20.9146 8.6558 20.5978 8.39679C18.5539 6.72562 16.2001 5.1888 13.6546 3.86026ZM12.086 5.18671C12.3256 5.06294 12.7193 5.06411 12.9606 5.19004C15.3899 6.45796 17.6283 7.91666 19.5676 9.49223C17.6168 11.0932 15.385 12.5471 12.9141 13.8233C12.6744 13.9471 12.2807 13.9459 12.0394 13.82C9.61007 12.552 7.37166 11.0933 5.43243 9.51777C7.38324 7.91684 9.61499 6.46285 12.086 5.18671Z" fill="#676767"/>
<path d="M21.697 13.198C21.9164 13.5494 21.8094 14.012 21.458 14.2314L15.3508 18.0443C14.5221 18.5617 13.4939 18.8009 12.4999 18.801C11.506 18.801 10.4777 18.5619 9.64887 18.0446L3.60854 14.2749C3.25714 14.0556 3.15006 13.593 3.36937 13.2416C3.58867 12.8902 4.05132 12.7831 4.40271 13.0024L10.443 16.7721C10.9872 17.1117 11.7264 17.301 12.4998 17.301C13.2733 17.3009 14.0124 17.1116 14.5564 16.7719L20.6637 12.959C21.015 12.7397 21.4777 12.8467 21.697 13.198Z" fill="#676767"/>
<path d="M21.697 16.9527C21.9164 17.304 21.8094 17.7667 21.4581 17.9861L16.1692 21.2889C15.1116 21.9494 13.7886 22.2602 12.4999 22.2602C11.2112 22.2603 9.88811 21.9497 8.83033 21.2894L3.60846 18.0296C3.25709 17.8102 3.15007 17.3476 3.36942 16.9962C3.58876 16.6448 4.05142 16.5378 4.40279 16.7572L9.62465 20.017C10.3977 20.4995 11.4316 20.7603 12.4998 20.7602C13.568 20.7602 14.6018 20.4993 15.3747 20.0167L20.6636 16.7138C21.0149 16.4944 21.4776 16.6013 21.697 16.9527Z" fill="#676767"/>
</svg>
