<svg width="20" height="20" viewBox="0 0 20 20" fill="none" xmlns="http://www.w3.org/2000/svg">
<path d="M8.33335 1.875C7.98818 1.875 7.70835 2.15482 7.70835 2.5V3.125H4.16669C3.82151 3.125 3.54169 3.40482 3.54169 3.75C3.54169 4.09518 3.82151 4.375 4.16669 4.375H15.8334C16.1785 4.375 16.4584 4.09518 16.4584 3.75C16.4584 3.40482 16.1785 3.125 15.8334 3.125H12.2917V2.5C12.2917 2.15482 12.0119 1.875 11.6667 1.875H8.33335Z" fill="#CD1B1B"/>
<path d="M10.8839 12.5L12.1086 13.7247C12.3527 13.9688 12.3527 14.3645 12.1086 14.6086C11.8646 14.8527 11.4688 14.8527 11.2247 14.6086L10 13.3839L8.7753 14.6086C8.53122 14.8527 8.1355 14.8527 7.89142 14.6086C7.64734 14.3645 7.64734 13.9688 7.89142 13.7247L9.11614 12.5L7.89141 11.2753C7.64733 11.0312 7.64733 10.6355 7.89141 10.3914C8.13549 10.1473 8.53122 10.1473 8.7753 10.3914L10 11.6161L11.2248 10.3914C11.4688 10.1473 11.8646 10.1473 12.1086 10.3914C12.3527 10.6355 12.3527 11.0312 12.1086 11.2753L10.8839 12.5Z" fill="#CD1B1B"/>
<path fill-rule="evenodd" clip-rule="evenodd" d="M4.99287 6.59765C5.02804 6.28113 5.29558 6.04167 5.61405 6.04167H14.386C14.7045 6.04167 14.972 6.28113 15.0072 6.59765L15.174 8.09877C15.4763 10.8199 15.4763 13.5661 15.174 16.2872L15.1575 16.435C15.0375 17.5151 14.2004 18.3764 13.1241 18.5271C11.0515 18.8172 8.94854 18.8172 6.87592 18.5271C5.79964 18.3764 4.96252 17.5151 4.8425 16.435L4.82608 16.2872C4.52374 13.5661 4.52374 10.8199 4.82608 8.09877L4.99287 6.59765ZM6.17345 7.29167L6.06844 8.23681C5.77629 10.8662 5.77629 13.5198 6.06844 16.1492L6.08486 16.2969C6.14178 16.8092 6.53879 17.2177 7.04923 17.2891C9.00687 17.5632 10.9932 17.5632 12.9508 17.2891C13.4612 17.2177 13.8583 16.8092 13.9152 16.2969L13.9316 16.1492C14.2237 13.5198 14.2237 10.8662 13.9316 8.23681L13.8266 7.29167H6.17345Z" fill="#CD1B1B"/>
</svg>
